<?xml version="1.0" encoding="utf-8"?>
<!-- Generator: Adobe Illustrator 23.0.2, SVG Export Plug-In . SVG Version: 6.00 Build 0)  -->
<svg version="1.1" id="Слой_1" xmlns="http://www.w3.org/2000/svg" xmlns:xlink="http://www.w3.org/1999/xlink" x="0px" y="0px"
	 viewBox="0 0 60 60" style="enable-background:new 0 0 60 60;" xml:space="preserve">
<style type="text/css">
	.st0{fill:#CCFFD9;stroke:#CCFFD9;stroke-width:1.15;stroke-linecap:round;stroke-linejoin:round;}
	.st1{fill:url(#SVGID_1_);stroke:#CCFFD9;stroke-width:1.15;stroke-linecap:round;stroke-linejoin:round;}
	.st2{fill:none;stroke:#CCFFD9;stroke-width:1.15;stroke-linecap:round;stroke-linejoin:round;}
	.st3{fill:#0097BF;}
	.st4{font-family:'SegoePrint';}
	.st5{font-size:2.9529px;}
	.st6{fill:#D83D3D;}
	.st7{font-family:'MyriadPro-Regular';}
	.st8{font-size:2.1092px;}
	.st9{fill:none;}
</style>
<title>dolphin</title>
<path class="st0" d="M52.8,34.4c-3.6,0-3.6-0.5-7.2-0.5s-3.6,0.5-7.2,0.5S34.6,34,31,34c-3.6,0-3.6,0.5-7.2,0.5S20.2,34,16.6,34"/>
<linearGradient id="SVGID_1_" gradientUnits="userSpaceOnUse" x1="5.945" y1="32.5571" x2="34.6664" y2="32.5571">
	<stop  offset="0.1052" style="stop-color:#0097BF"/>
	<stop  offset="0.8966" style="stop-color:#FF302A"/>
</linearGradient>
<path class="st1" d="M30.7,25.5c0,0-0.7-4.7-10-4.7c-1.7,0-3.3,0.2-4.9,0.6c-2-0.5-6.5-1.5-9.9-0.6c2.8,1.1,3.8,2,4.6,3.1
	c-2.9,2.1-4.5,5-4.6,8c0,5,5,9.4,14.3,10.7c3.9,2.6,5.3,2.2,5.3,2.2s-2.2-1.7-0.9-3.2c1.1-1,2.5-1.9,4.1-2.5c0,0-6.4,0-8.6,2.1
	c-3.4-1.1-6.9-2.7-7.4-6.7c-0.6-4.6,5.5-8.8,11.5-7.6s9.9,2.4,10.3,1C34.9,27.2,30.7,25.5,30.7,25.5z"/>
<path class="st2" d="M23.3,19.5c0,0,0.3-6.1-3.6-7.6"/>
<path class="st2" d="M28.5,14.8c-1.8,0.7-3,2-2.9,3.4"/>
<text transform="matrix(2.2342 0 0 1 16.5718 32.2796)" class="st3 st4 st5">DOLPHINS</text>
<text transform="matrix(1.4195 0 0 1 16.5728 37.1224)" class="st6 st7 st8">Consulting &amp; TI Solutions SRL</text>
<polygon class="st9" points="38.5,38.3 46.3,38.3 46.3,38.3 38.5,38.3 "/>
</svg>
